<svg width="512" height="512" viewBox="0 0 512 512" xmlns="http://www.w3.org/2000/svg">
  <defs>
    <linearGradient id="bg" x1="0%" y1="0%" x2="100%" y2="100%">
      <stop offset="0%" style="stop-color:#2563eb;stop-opacity:1" />
      <stop offset="100%" style="stop-color:#1d4ed8;stop-opacity:1" />
    </linearGradient>
  </defs>
  
  <!-- Background circle -->
  <circle cx="256" cy="256" r="240" fill="url(#bg)"/>
  
  <!-- Money/Finance icon -->
  <g fill="white" transform="translate(128, 128)">
    <!-- Dollar sign -->
    <path d="M128 64c0-35.3-28.7-64-64-64S0 28.7 0 64s28.7 64 64 64 64-28.7 64-64zM64 96c-17.7 0-32-14.3-32-32s14.3-32 32-32 32 14.3 32 32-14.3 32-32 32z"/>
    <text x="64" y="80" text-anchor="middle" font-family="Arial, sans-serif" font-size="48" font-weight="bold">$</text>
    
    <!-- Chart bars -->
    <rect x="160" y="120" width="20" height="40" rx="2"/>
    <rect x="190" y="100" width="20" height="60" rx="2"/>
    <rect x="220" y="80" width="20" height="80" rx="2"/>
    <rect x="250" y="60" width="20" height="100" rx="2"/>
  </g>
  
  <!-- Mission/People icon -->
  <g fill="white" opacity="0.9" transform="translate(256, 320)">
    <circle cx="0" cy="0" r="20"/>
    <circle cx="40" cy="0" r="20"/>
    <circle cx="20" cy="-30" r="20"/>
    <circle cx="-20" cy="-30" r="20"/>
    <circle cx="60" cy="-30" r="20"/>
  </g>
</svg> 