<svg xmlns="http://www.w3.org/2000/svg" version="1.1" xmlns:xlink="http://www.w3.org/1999/xlink" viewBox="0 0 200 200"><rect width="200" height="200" fill="url('#gradient')"></rect><defs><linearGradient id="gradient" gradientTransform="rotate(45 0.5 0.5)"><stop offset="0%" stop-color="#dee90b"></stop><stop offset="100%" stop-color="#d9e241"></stop></linearGradient></defs><g><g fill="#1b3855" transform="matrix(3.029087921117502,0,0,3.029087921117502,6.748395119853555,122.25228316738847)" stroke="#0e5278" stroke-width="0.2"><path d="M6.85 0L1.07 0L1.07-14.22L6.18-14.22Q8.93-14.22 10.36-13.21Q11.79-12.21 11.79-10.29L11.79-10.29Q11.79-9.19 11.28-8.41Q10.77-7.63 9.79-7.26L9.79-7.26Q10.90-6.96 11.49-6.16Q12.09-5.36 12.09-4.21L12.09-4.21Q12.09-2.12 10.77-1.07Q9.44-0.02 6.85 0L6.85 0ZM6.90-6.04L4.50-6.04L4.50-2.64L6.75-2.64Q7.68-2.64 8.17-3.06Q8.67-3.49 8.67-4.26L8.67-4.26Q8.67-6.04 6.90-6.04L6.90-6.04ZM4.50-11.57L4.50-8.29L6.29-8.29Q7.41-8.30 7.89-8.70Q8.37-9.10 8.37-9.88L8.37-9.88Q8.37-10.78 7.85-11.18Q7.33-11.57 6.18-11.57L6.18-11.57L4.50-11.57ZM13.42-4.82L13.41-5.38Q13.41-6.96 14.02-8.20Q14.64-9.43 15.79-10.10Q16.94-10.76 18.50-10.76L18.50-10.76Q20.87-10.76 22.24-9.29Q23.60-7.82 23.60-5.29L23.60-5.29L23.60-5.18Q23.60-2.71 22.23-1.25Q20.86 0.20 18.52 0.20L18.52 0.20Q16.26 0.20 14.89-1.16Q13.53-2.51 13.42-4.82L13.42-4.82ZM16.71-5.77L16.70-5.18Q16.70-3.71 17.16-3.03Q17.62-2.34 18.52-2.34L18.52-2.34Q20.27-2.34 20.31-5.05L20.31-5.05L20.31-5.38Q20.31-8.22 18.50-8.22L18.50-8.22Q16.85-8.22 16.71-5.77L16.71-5.77ZM30.59-2.97L30.59-2.97Q30.59-3.39 30.15-3.64Q29.71-3.90 28.48-4.17Q27.25-4.44 26.45-4.89Q25.64-5.33 25.22-5.97Q24.80-6.60 24.80-7.42L24.80-7.42Q24.80-8.88 26.01-9.82Q27.21-10.76 29.15-10.76L29.15-10.76Q31.24-10.76 32.51-9.81Q33.78-8.87 33.78-7.32L33.78-7.32L30.48-7.32Q30.48-8.59 29.14-8.59L29.14-8.59Q28.62-8.59 28.27-8.31Q27.92-8.02 27.92-7.59L27.92-7.59Q27.92-7.15 28.35-6.88Q28.78-6.60 29.72-6.43Q30.66-6.25 31.38-6.01L31.38-6.01Q33.76-5.19 33.76-3.07L33.76-3.07Q33.76-1.62 32.48-0.71Q31.19 0.20 29.15 0.20L29.15 0.20Q27.79 0.20 26.73-0.29Q25.66-0.78 25.07-1.62Q24.47-2.46 24.47-3.39L24.47-3.39L27.55-3.39Q27.57-2.66 28.04-2.32Q28.51-1.98 29.24-1.98L29.24-1.98Q29.91-1.98 30.25-2.26Q30.59-2.53 30.59-2.97ZM40.83-2.97L40.83-2.97Q40.83-3.39 40.39-3.64Q39.95-3.90 38.72-4.17Q37.49-4.44 36.69-4.89Q35.89-5.33 35.47-5.97Q35.05-6.60 35.05-7.42L35.05-7.42Q35.05-8.88 36.25-9.82Q37.45-10.76 39.39-10.76L39.39-10.76Q41.48-10.76 42.75-9.81Q44.02-8.87 44.02-7.32L44.02-7.32L40.72-7.32Q40.72-8.59 39.38-8.59L39.38-8.59Q38.87-8.59 38.52-8.31Q38.16-8.02 38.16-7.59L38.16-7.59Q38.16-7.15 38.59-6.88Q39.02-6.60 39.97-6.43Q40.91-6.25 41.62-6.01L41.62-6.01Q44.00-5.19 44.00-3.07L44.00-3.07Q44.00-1.62 42.72-0.71Q41.44 0.20 39.39 0.20L39.39 0.20Q38.04 0.20 36.97-0.29Q35.91-0.78 35.31-1.62Q34.72-2.46 34.72-3.39L34.72-3.39L37.79-3.39Q37.81-2.66 38.28-2.32Q38.75-1.98 39.48-1.98L39.48-1.98Q40.16-1.98 40.49-2.26Q40.83-2.53 40.83-2.97ZM49.01-10.57L49.01 0L45.71 0L45.71-10.57L49.01-10.57ZM45.52-13.29L45.52-13.29Q45.52-13.99 46.03-14.44Q46.53-14.89 47.34-14.89Q48.15-14.89 48.66-14.44Q49.17-13.99 49.17-13.29Q49.17-12.59 48.66-12.14Q48.15-11.69 47.34-11.69Q46.53-11.69 46.03-12.14Q45.52-12.59 45.52-13.29ZM50.98-10.57L54.06-10.57L54.17-9.33Q55.26-10.76 57.19-10.76L57.19-10.76Q58.84-10.76 59.65-9.78Q60.47-8.79 60.50-6.81L60.50-6.81L60.50 0L57.20 0L57.20-6.67Q57.20-7.47 56.88-7.85Q56.55-8.22 55.70-8.22L55.70-8.22Q54.74-8.22 54.27-7.46L54.27-7.46L54.27 0L50.98 0L50.98-10.57Z"></path></g></g></svg>